# xmcd
#
# Track frame offsets:
#  150
#  12890
#  24389
#  36367
#  51866
#  68819
#  87190
#  105501
#  121053
#  132836
#  145718
#  160987
#  180162
#  195446
#  212773
#  231263
#  246786
#  264032
#
# Disc length: 3895 seconds
#
# Revision: 0
# Processed by: cddbd v1.5.1PL2 Copyright (c) Steve Scherf et al.
# Submitted via: Collectorz.com_Music_Collector 6.10
#
DISCID=e20f3512
DTITLE=VARIOUS AUSTRALIAN ARTISTS - Toyota Muster Rural Aid Appeal Volumes 29,30,31,32 [CD2)
DYEAR=2005
DGENRE=AUSSIE ALTERNATIVE - AUSSIE BLUEGRASS - AUSSIE BLUES - AUSSIE BLUES ROCK - AUSSIE COUNTRY - AUSSIE FOLK-ROCK - AUSSIE INDEPENDENT ROCK - AUSSIE_Country Blues - AUSSIE_General Country - Country
TTITLE0=JOHN WILLIAMSON - WE LOve This Country
TTITLE1=Beccy Cole - Men Don't Dance Anymore
TTITLE2=Travis Collins - Bridge THat You Won't Burn
TTITLE3=Joni Harms - Let's Put The Western Back Into Country
TTITLE4=Carter and Carter - God Did'n't Make Mistakes
TTITLE5=Darren Colston - Come BY Chance
TTITLE6=Chrome Daddies - Cowgirl Mama
TTITLE7=Graeme Jensen - Grab Yourself A Beer
TTITLE8=James Anderson - Holiday
TTITLE9=Brian Elkington - Home
TTITLE10=Claye Middleton - I'll Take The Country
TTITLE11=Holloway Street - Long Time Dead
TTITLE12=Jonah's Road - Missing You
TTITLE13=Carla Herrod - Out All NIght
TTITLE14=Luke O'Shea and The Medecine Wheel - Wild Colonial Boys
TTITLE15=Harley Smith - Yeah Right
TTITLE16=Bo Jenkins - 50 Year Guarantee
TTITLE17=Fiddlers Festival - Musical Priest part 2
EXTD=
EXTT0=
EXTT1=
EXTT2=
EXTT3=
EXTT4=
EXTT5=
EXTT6=
EXTT7=
EXTT8=
EXTT9=
EXTT10=
EXTT11=
EXTT12=
EXTT13=
EXTT14=
EXTT15=
EXTT16=
EXTT17=
PLAYORDER=
